<?xml version="1.0" encoding="utf-8"?>
<!-- Generator: Adobe Illustrator 22.0.0, SVG Export Plug-In . SVG Version: 6.00 Build 0)  -->
<svg version="1.1" id="Calque_1" xmlns="http://www.w3.org/2000/svg" xmlns:xlink="http://www.w3.org/1999/xlink" x="0px" y="0px"
	 viewBox="0 0 16 16" style="enable-background:new 0 0 16 16;" xml:space="preserve">
<style type="text/css">
	.st0{fill:#C1272D;}
	.st1{fill:none;}
	.st2{fill:#FFFFFF;}
	.st3{font-family:'Raleway-Regular';}
	.st4{font-size:2.5359px;}
</style>
<g>
	<g id="Livello_110">
		<path class="st0" d="M14,5.8c0-3.1-2.5-5.5-5.6-5.5S2.9,2.8,2.9,5.8c0,1.3,0.5,2.6,1.3,3.5l4.3,6.1l4.3-6.2
			c0.2-0.2,0.3-0.4,0.4-0.6l0-0.1h0C13.7,7.8,14,6.8,14,5.8"/>
	</g>
	<rect x="4.1" y="1.9" class="st1" width="8.8" height="8.8"/>
	<text transform="matrix(0.85 0 0 1 6.1367 3.7612)" class="st2 st3 st4">YOU</text>
	<text transform="matrix(0.85 0 0 1 6.373 6.2969)" class="st2 st3 st4">ARE</text>
	<text transform="matrix(0.85 0 0 1 5.6494 8.833)" class="st2 st3 st4">HERE</text>
</g>
</svg>
