<svg height="31" viewBox="0 0 31 31" width="31" xmlns="http://www.w3.org/2000/svg"><path d="m157.906406 181.535742 12.7-12.94999c.5464-.59604.522-1.51789-.0551-2.08422-.5771-.566337-1.4992-.573314-2.0849-.01578l-12.68 12.92999-13.19997-12.94999c-.37791-.396941-.94221-.55618-1.47187-.415336-.529659.140846-.940338.559346-1.071164 1.091566-.130825.53222.039031 1.09342.443032 1.46377l13.179972 12.92999-13.179972 12.93c-.557535.5856-.550558 1.5078.015776 2.0849.566336.5771 1.488186.6015 2.084226.0551l13.19997-12.95 12.68 12.93c.5857.5575 1.5078.5506 2.0849-.0158.5771-.5663.6015-1.4881.0551-2.0842z" fill="#fff" fill-rule="evenodd" transform="translate(-140 -166)"/></svg>