<svg height="16" viewBox="0 0 15 16" width="15" xmlns="http://www.w3.org/2000/svg"><path d="m180.52625 588c-4.883125 0-7.52625-3.348901-7.52625-7.67239 0-4.620192 2.97625-8.32761 8.2975-8.32761 3.88375 0 6.7025 2.773352 6.7025 6.594093 0 5.983517-6.45625 7.563187-6.1325 4.149726-.44375.760989-1.15875 1.616758-2.533125 1.616758-1.5725 0-2.55-1.26511-2.55-3.301511 0-3.052198 1.825625-5.631181 3.986875-5.631181 1.036875 0 1.75.601648 2.048125 1.525412l.29-1.120879h1.46125c-.1525.571428-1.450625 5.856456-1.450625 5.856456-.405 1.831044.84375 1.863324 1.95125.890796 2.080625-1.771978 2.188125-6.405906-.62375-8.338599-3.013125-1.985576-9.871875-.756868-9.871875 5.970467 0 3.853709 2.46875 6.442995 6.143125 6.442995 2.1475 0 3.46375-.638736 4.559375-1.337912l.735625 1.166209c-1.069375.663461-2.788125 1.51717-5.4875 1.51717zm-1.494323-9.660785c-.430911.908314-.709346 2.085057-.709346 2.998794 0 2.447028 2.122613 2.462618 3.165237.162006.429104-.944919.70573-2.149453.70573-3.069969 0-1.977279-2.106341-2.327726-3.161621-.090831z" fill="#b5ade6" transform="translate(-173 -572)"/></svg>