<svg width="32" height="31" viewBox="0 0 32 31" fill="none" xmlns="http://www.w3.org/2000/svg">
<path fill-rule="evenodd" clip-rule="evenodd" d="M7.64845 3.52837C7.60433 1.5255 6.17207 0 3.84629 0C1.52051 0 0 1.5255 0 3.52837C0 5.48975 1.47557 7.05918 3.75804 7.05918H3.80149C6.17207 7.05918 7.64845 5.48975 7.64845 3.52837ZM7.20068 9.84731H0.402021V30.2744H7.20068V9.84731ZM23.8914 9.36764C28.3653 9.36764 31.7192 12.2878 31.7192 18.5622L31.719 30.2745H24.9206V19.3459C24.9206 16.6009 23.9368 14.7278 21.4756 14.7278C19.5974 14.7278 18.4786 15.9905 17.9872 17.2102C17.8075 17.6473 17.7633 18.2563 17.7633 18.8668V30.275H10.9639C10.9639 30.275 11.0535 11.7646 10.9639 9.84785H17.7633V12.7412C18.6657 11.3503 20.2818 9.36764 23.8914 9.36764Z" fill="white"/>
</svg>
