<svg xmlns="http://www.w3.org/2000/svg" viewBox="0 0 609.6 905.04"><defs><style>.cls-1{fill:#fff;}</style></defs><title>Fichier 26</title><g id="Calque_2" data-name="Calque 2"><g id="Black"><path class="cls-1" d="M609.13,178.89a203.53,203.53,0,0,0-20.71-65.32,208.95,208.95,0,0,0-97.77-94.39,211.84,211.84,0,0,0-40-14,181.89,181.89,0,0,0-46.48-5V.4c-.63,0-1.27.08-1.91.08q-53.49,0-107,0c-.82,0-1.78.4-2.46-.46h-.48c-.09.21-.15.44-.46.45-.64,0-1.27,0-1.91,0H209c-.71,0-1.43,0-2.14-.08V.26L194.71.42a153.42,153.42,0,0,0-29,3.58A206,206,0,0,0,90,36.49,207.9,207.9,0,0,0,35.64,91.1,204.26,204.26,0,0,0,4.41,163.56C2.34,173.18.58,182.85.48,192.74c.16,1.95-.29,3.88-.23,5.83-.13,1,.27,2.06-.25,3V705.12c.53,1.41.11,2.87.25,4.3a27.7,27.7,0,0,1,.23,4.64,111.48,111.48,0,0,0,2,18.33,205.51,205.51,0,0,0,22.7,65.39A209,209,0,0,0,149,897.78,185.41,185.41,0,0,0,185.8,905H425.23a176.05,176.05,0,0,0,23.13-3.75,207.53,207.53,0,0,0,92.8-47.74A210.4,210.4,0,0,0,570.85,821a204.93,204.93,0,0,0,31.53-63.2c3.45-11.76,6.4-23.62,7.22-35.85V183.56C609.49,182,609.35,180.44,609.13,178.89ZM506.58,165.47a77.9,77.9,0,0,1,5,15,2.07,2.07,0,0,1-1,2.41c-4.21,3.31-8.39,6.66-12.59,10L398.81,271.5,293.44,355.12,201.59,428q-50.43,40-100.87,80a5.65,5.65,0,0,1-2.07,1.38,3.14,3.14,0,0,1-.19-1.79c0-5.28.06-10.56,0-15.84a4,4,0,0,1,1.73-3.61q21.47-17,42.84-34l98.78-78.45q60.18-47.79,120.38-95.59L465.79,197.8l39.62-31.47C505.72,166.09,506,165.86,506.58,165.47Zm6.57,131.87a4.21,4.21,0,0,1-1.87,3.79q-19,15-38,30.06l-98.79,78.38-108,85.7L170,571.85l-70,55.59a2.46,2.46,0,0,1-1.5.73c0-6,0-12,0-17.87,0-1.41.85-2,1.7-2.64l26.31-20.85L220,512.65q62.12-49.22,124.22-98.44,59.49-47.13,119-94.28l48.12-38.11c.47-.37.84-1,1.81-.94v3C513.11,288.39,513,292.87,513.15,297.34Zm-22.41-155a76.28,76.28,0,0,1,7.17,8.37c1.16,1.56,1.16,1.58-.35,2.78l-26.1,20.71L369.87,254.85,263.78,339.09l-92,73.08-71,56.36c-.67.53-1.37,1-2.37,1.75v-4.83c0-3.84.08-7.69,0-11.52a4.2,4.2,0,0,1,1.81-3.82Q116,437.74,131.6,425.24L223.77,352,341.85,258.1,444,176.93l43.75-34.77C489.39,140.84,489,140.61,490.74,142.32ZM370.17,115.84a4.85,4.85,0,0,1,3.2-1.35c7.44.06,14.88,0,22.32,0,.3,0,.6.07,1.43.17Q247.68,233.27,98.58,351.56c0-6.69,0-12.91,0-19.13,0-1.2.77-1.67,1.51-2.25q8.72-6.94,17.46-13.88L221,234.19,348,133.44Q359.11,124.65,370.17,115.84Zm-94.68-1.34c7.19,0,14.39,0,21.59,0,.39,0,.79,0,1.22.06C297.31,116,100.88,272,98.82,273c-.41-.39-.23-.89-.23-1.34,0-5.44,0-10.87,0-16.31a3.35,3.35,0,0,1,1.46-3Q153.21,210.21,206.34,168q33-26.15,65.91-52.31A4.79,4.79,0,0,1,275.49,114.5ZM99.92,181.74a76.81,76.81,0,0,1,2.94-10.84,5.56,5.56,0,0,1,1.92-2.65q32.13-25.44,64.22-50.94a6.29,6.29,0,0,1,2.74-1.34c8.42-1.67,16.94-1.45,25.67-1L98.86,193.2A48.06,48.06,0,0,1,99.92,181.74Zm.2,29.52q37.13-29.4,74.22-58.84,23-18.25,46-36.53a5.8,5.8,0,0,1,3.91-1.4c7.6.07,15.2,0,22.79,0h2c-1.29,1.72-148.51,118.53-150.46,119.38v-3.36c0-5.35.06-10.71,0-16.07A3.65,3.65,0,0,1,100.12,211.26Zm-1.52,99c0-5.2,0-10.4,0-15.6a3.61,3.61,0,0,1,1.56-3.21q35-27.69,69.89-55.42l112.88-89.58q19.26-15.28,38.49-30.57a5.81,5.81,0,0,1,3.91-1.39c6.55.07,13.11,0,19.67,0a5.06,5.06,0,0,1,2.42.31L99,311.88C98.31,311.38,98.6,310.76,98.6,310.26Zm1.51,59.15q21.57-17,43-34.1l96.92-76.9L366.88,157.83q26.12-20.72,52.18-41.48a7.84,7.84,0,0,1,5.43-1.83,104.57,104.57,0,0,1,19,2.1,5.41,5.41,0,0,1,1.94.74l-347,275.3v-7.4c0-4.08.06-8.16,0-12.24A4,4,0,0,1,100.11,369.41Zm0,41q11.73-9.33,23.48-18.64L211,322.51q61.16-48.51,122.31-97,51.68-41,103.33-82c8.2-6.51,16.43-13,24.58-19.56a2.54,2.54,0,0,1,3.16-.33,97.65,97.65,0,0,1,13.13,7.57l-379,301.27c0-6.87.06-13.11,0-19.34C98.39,411.67,99.27,411.13,100.11,410.45ZM106.19,743a74.31,74.31,0,0,1-5.69-15.53c-.25-1,.45-1.29,1-1.71q5.14-4.12,10.32-8.21l122.68-97.34L309.06,561c.62-.49,1.26-.95,2.33-1.74v10.05c0,3-.07,6.08,0,9.12a3.24,3.24,0,0,1-1.5,3q-18.45,14.55-36.83,29.2l-92,73-72.87,57.85C107.57,742,106.92,742.46,106.19,743Zm204.25-20.41a76.11,76.11,0,0,1-7.69,22.55,8.9,8.9,0,0,1-2.4,2.93Q276.66,766.8,253,785.6a9.79,9.79,0,0,1-3.35,1.76,98.3,98.3,0,0,1-20.4,3.83,70.4,70.4,0,0,1-8.1.3l89.24-71.06A3.87,3.87,0,0,1,310.44,722.59Zm-.39-21q-6.37,5.08-12.75,10.17-49,39-98.09,78.12a6.84,6.84,0,0,1-4.75,1.69c-5.27-.14-10.55.12-15.81-.52l-5.22-.67c.22-.39,0,0,0-.33a.28.28,0,0,1,.05-.22c1.34-1.17,136-107.89,138-109,0,6.35,0,12.41,0,18.47A2.73,2.73,0,0,1,310.05,701.59Zm0-39q-11.47,9.06-22.94,18.15l-88.92,70.36q-21,16.57-41.91,33.19a3,3,0,0,1-3.42.59,111.36,111.36,0,0,1-12.68-6.14c-.35-.2-.72-.36-.84-.8,2.58-2.21,170.16-135.39,172.12-136.33,0,6.3,0,12.38,0,18.45A2.91,2.91,0,0,1,310,662.56Zm-.14-39.2Q228.17,688.13,146.5,752.94l-19,15c-.37.29-.75.56-1.2.9A80.56,80.56,0,0,1,114.13,756L311.44,599.42v2.28c0,6.16-.05,12.31,0,18.47A3.63,3.63,0,0,1,309.89,623.36Zm17.41-97.73c-4.72-.08-9.44,0-14.16,0-1.67,0-1.69,0-1.7,1.68,0,3.6-.05,7.2,0,10.8a3.33,3.33,0,0,1-1.42,3q-26.91,21.25-53.75,42.6L157.68,662l-57.48,45.6c-.43.34-.87.66-1.28,1-.76-.41-.45-1-.45-1.54,0-6,0-12,0-18a3.56,3.56,0,0,1,1.58-3.17q43.71-34.6,87.37-69.3l87.74-69.6L406.43,442.72l104.83-83.17c.49-.38,1-.75,1.85-1.39,0,7.2,0,13.92,0,20.64,0,1.19-.69,1.67-1.44,2.26l-34.56,27.42-98.8,78.4q-23.58,18.71-47.12,37.44A5.73,5.73,0,0,1,327.3,525.63Zm185.63-76.29a73.13,73.13,0,0,1-2.12,13.22,4.73,4.73,0,0,1-1.72,2.72q-36.81,29.18-73.57,58.4a7.16,7.16,0,0,1-4.12,1.53c-8.47.73-16.94.24-25.41.39a1.06,1.06,0,0,1-1-.39L513,439.47A73.23,73.23,0,0,1,512.93,449.34Zm-1.21-27.94q-31.1,24.62-62.15,49.31-33.33,26.44-66.64,52.91a8.55,8.55,0,0,1-5.83,2c-7.59-.13-15.18,0-22.83,0,1.1-1.5,156.15-124.67,158.84-126.16,0,6.56,0,12.88,0,19.19A3.12,3.12,0,0,1,511.72,421.4Zm-.43-80.95q-24.65,19.47-49.23,39l-92,73L236.28,558.6,128.09,644.45l-28,22.2c-.43.33-.89.62-1.66,1.15,0-6.44,0-12.44,0-18.44a3.09,3.09,0,0,1,1.44-2.75q17-13.46,34-27l92.24-73.18L359.86,440.34,488.92,337.93l22.55-17.87c.41-.33.85-.62,1.64-1.19v2.43c0,5.12-.07,10.24,0,15.36A4.21,4.21,0,0,1,511.29,340.45Zm.09-77.79q-23.72,18.72-47.37,37.5-48,38-96,76.1L256,465l-98.65,78.17q-28.47,22.56-56.94,45.11a5,5,0,0,1-2,1.24V585.1c0-4.4,0-8.8,0-13.19a3.56,3.56,0,0,1,1.52-3.21q20.72-16.34,41.34-32.77l94.49-75,126.8-100.58,121.71-96.59q13.62-10.82,27.25-21.6c.41-.32.71-.88,1.58-.75v5.65c0,4-.09,8,0,12A3.92,3.92,0,0,1,511.38,262.66Zm0-39.43Q475.18,251.88,439,280.58l-99.18,78.69L227.53,448.39l-98.8,78.39-28.55,22.66c-.43.34-.9.64-1.73,1.23,0-7.2,0-14,0-20.76,0-1.21.86-1.65,1.58-2.22q9.46-7.55,19-15.06l87.18-69.16,134-106.26,107.83-85.57,63.31-50.23c.49-.39,1-.74,1.6-1.19a3.13,3.13,0,0,1,.26,1.91c0,5.84-.06,11.68.06,17.51A4,4,0,0,1,511.37,223.23Z"/></g></g></svg>