<svg width="610" height="906" viewBox="0 0 610 906" fill="none" xmlns="http://www.w3.org/2000/svg">
<g clip-path="url(#clip0)">
<path d="M609.13 178.89C605.968 156.102 598.965 134.016 588.42 113.57C567.258 72.091 532.847 38.8698 490.65 19.1795C477.818 13.1876 464.418 8.49743 450.65 5.17953C435.436 1.52052 419.814 -0.160025 404.17 0.179531V0.399531C403.54 0.399531 402.9 0.479531 402.26 0.479531C366.6 0.479531 330.933 0.479531 295.26 0.479531C294.44 0.479531 293.48 0.879531 292.8 0.0195312H292.32C292.23 0.229531 292.17 0.459531 291.86 0.469531C291.22 0.469531 290.59 0.469531 289.95 0.469531H209C208.29 0.469531 207.57 0.469531 206.86 0.389531V0.259531L194.71 0.419531C184.951 0.687501 175.241 1.88627 165.71 3.99953C138.543 9.62103 112.791 20.672 90 36.4895C68.6355 51.1466 50.1989 69.668 35.64 91.0995C20.6195 112.994 10.0116 137.606 4.41 163.56C2.34 173.18 0.58 182.85 0.48 192.74C0.64 194.69 0.19 196.62 0.25 198.57C0.12 199.57 0.52 200.63 0 201.57V705.12C0.53 706.53 0.11 707.989 0.25 709.419C0.45646 710.957 0.533397 712.509 0.48 714.06C0.639359 720.214 1.30831 726.345 2.48 732.39C6.29516 755.313 13.9707 777.423 25.18 797.78C51.6492 846.139 96.1532 882.081 149 897.78C160.991 901.424 173.321 903.843 185.8 905H425.23C433.015 904.265 440.742 903.012 448.36 901.25C482.855 893.501 514.798 877.068 541.16 853.51C552.166 843.741 562.117 832.845 570.85 821C584.938 801.916 595.607 780.532 602.38 757.799C605.83 746.039 608.78 734.18 609.6 721.95V183.56C609.49 182 609.35 180.44 609.13 178.89ZM506.58 165.47C508.751 170.287 510.426 175.313 511.58 180.47C511.715 180.925 511.69 181.413 511.508 181.852C511.325 182.291 510.998 182.654 510.58 182.88C506.37 186.19 502.19 189.54 497.99 192.88L398.81 271.5L293.44 355.12L201.59 428C167.97 454.666 134.347 481.333 100.72 508C100.141 508.608 99.434 509.079 98.65 509.38C98.4133 508.814 98.3473 508.192 98.46 507.59C98.46 502.31 98.52 497.03 98.46 491.75C98.4058 491.049 98.5372 490.346 98.8409 489.713C99.1446 489.079 99.6099 488.536 100.19 488.14C114.503 476.806 128.783 465.473 143.03 454.14L241.81 375.69C281.93 343.83 322.057 311.966 362.19 280.1L465.79 197.8L505.41 166.33C505.72 166.09 506 165.86 506.58 165.47ZM513.15 297.34C513.2 298.08 513.053 298.821 512.725 299.486C512.397 300.152 511.898 300.719 511.28 301.13C498.613 311.13 485.947 321.15 473.28 331.19L374.49 409.57L266.49 495.27L170 571.849L100 627.44C99.6003 627.85 99.0698 628.108 98.5 628.169C98.5 622.169 98.5 616.169 98.5 610.299C98.5 608.889 99.35 608.299 100.2 607.659L126.51 586.81L220 512.65C261.413 479.836 302.82 447.023 344.22 414.21C383.88 382.79 423.547 351.363 463.22 319.93L511.34 281.82C511.81 281.45 512.18 280.82 513.15 280.88V283.88C513.11 288.39 513 292.87 513.15 297.34V297.34ZM490.74 142.34C493.329 144.953 495.725 147.75 497.91 150.71C499.07 152.27 499.07 152.29 497.56 153.49L471.46 174.2L369.87 254.85L263.78 339.09L171.78 412.17L100.78 468.53C100.11 469.06 99.41 469.53 98.41 470.28V465.45C98.41 461.61 98.49 457.76 98.41 453.93C98.3471 453.19 98.4814 452.446 98.7994 451.775C99.1174 451.104 99.6075 450.529 100.22 450.11C110.74 441.863 121.2 433.573 131.6 425.24L223.77 352L341.85 258.1L444 176.93L487.75 142.16C489.39 140.84 489 140.61 490.74 142.32V142.34ZM370.17 115.84C371.033 115.01 372.173 114.529 373.37 114.49C380.81 114.55 388.25 114.49 395.69 114.49C395.99 114.49 396.29 114.56 397.12 114.66C297.493 193.733 197.98 272.7 98.58 351.56C98.58 344.87 98.58 338.65 98.58 332.43C98.58 331.23 99.35 330.76 100.09 330.18C105.903 325.553 111.723 320.926 117.55 316.3L221 234.19L348 133.44C355.407 127.58 362.797 121.713 370.17 115.84ZM275.49 114.5C282.68 114.5 289.88 114.5 297.08 114.5C297.47 114.5 297.87 114.5 298.3 114.56C297.31 116 100.88 272 98.82 273C98.41 272.61 98.59 272.11 98.59 271.66C98.59 266.22 98.59 260.79 98.59 255.35C98.55 254.766 98.6638 254.181 98.92 253.655C99.1761 253.128 99.5657 252.678 100.05 252.35C135.49 224.256 170.92 196.14 206.34 168C228.34 150.566 250.31 133.13 272.25 115.69C273.145 114.904 274.3 114.48 275.49 114.5ZM99.92 181.74C100.634 178.059 101.617 174.436 102.86 170.9C103.22 169.844 103.889 168.92 104.78 168.25C126.2 151.29 147.607 134.31 169 117.31C169.79 116.645 170.731 116.185 171.74 115.97C180.16 114.3 188.68 114.52 197.41 114.97L98.86 193.2C98.753 189.351 99.1089 185.503 99.92 181.74V181.74ZM100.12 211.26C124.873 191.66 149.613 172.046 174.34 152.42C189.673 140.253 205.007 128.076 220.34 115.89C221.426 114.956 222.819 114.458 224.25 114.49C231.85 114.56 239.45 114.49 247.04 114.49H249.04C247.75 116.21 100.53 233.02 98.58 233.87V230.51C98.58 225.16 98.64 219.8 98.58 214.44C98.5465 213.822 98.6702 213.207 98.9396 212.651C99.2089 212.095 99.6151 211.616 100.12 211.26V211.26ZM98.6 310.26C98.6 305.06 98.6 299.86 98.6 294.66C98.5596 294.035 98.6821 293.411 98.9556 292.848C99.229 292.286 99.6441 291.804 100.16 291.45C123.493 272.99 146.79 254.516 170.05 236.03L282.93 146.45C295.77 136.263 308.6 126.073 321.42 115.88C322.508 114.951 323.9 114.456 325.33 114.49C331.88 114.56 338.44 114.49 345 114.49C345.82 114.394 346.651 114.5 347.42 114.8L99 311.88C98.31 311.38 98.6 310.76 98.6 310.26V310.26ZM100.11 369.41C114.49 358.076 128.823 346.71 143.11 335.31L240.03 258.41L366.88 157.83C384.293 144.016 401.687 130.19 419.06 116.35C420.574 115.076 422.514 114.423 424.49 114.52C430.874 114.638 437.234 115.341 443.49 116.62C444.178 116.739 444.837 116.99 445.43 117.36L98.43 392.66V385.26C98.43 381.18 98.49 377.1 98.43 373.02C98.3704 372.323 98.4941 371.624 98.7889 370.991C99.0836 370.357 99.5391 369.812 100.11 369.41V369.41ZM100.11 410.41C107.93 404.19 115.757 397.976 123.59 391.77L211 322.51C251.773 290.17 292.543 257.836 333.31 225.51C367.763 198.176 402.207 170.843 436.64 143.51C444.84 137 453.07 130.51 461.22 123.95C461.631 123.543 462.168 123.289 462.742 123.229C463.316 123.169 463.894 123.307 464.38 123.62C468.946 125.799 473.336 128.33 477.51 131.19L98.51 432.46C98.51 425.59 98.57 419.35 98.51 413.12C98.39 411.67 99.27 411.13 100.11 410.45V410.41ZM106.19 743C103.721 738.051 101.813 732.842 100.5 727.469C100.25 726.469 100.95 726.18 101.5 725.76C104.927 723.013 108.367 720.276 111.82 717.549L234.5 620.21L309.06 561C309.68 560.51 310.32 560.05 311.39 559.26V569.31C311.39 572.31 311.32 575.39 311.39 578.43C311.438 579.019 311.323 579.61 311.058 580.139C310.794 580.668 310.39 581.114 309.89 581.43C297.59 591.13 285.313 600.863 273.06 610.63L181.06 683.63L108.19 741.479C107.57 741.999 106.92 742.46 106.19 743ZM310.44 722.59C309.076 730.463 306.481 738.073 302.75 745.14C302.169 746.277 301.351 747.276 300.35 748.07C284.557 760.556 268.773 773.066 253 785.599C252.008 786.398 250.87 786.996 249.65 787.359C243.004 789.353 236.166 790.636 229.25 791.19C226.558 791.445 223.854 791.545 221.15 791.49L310.39 720.43C310.611 721.13 310.629 721.879 310.44 722.59V722.59ZM310.05 701.59C305.803 704.976 301.553 708.366 297.3 711.76C264.633 737.76 231.937 763.8 199.21 789.88C197.9 791.027 196.201 791.632 194.46 791.57C189.19 791.43 183.91 791.689 178.65 791.049L173.43 790.38C173.65 789.99 173.43 790.379 173.43 790.049C173.423 790.011 173.423 789.972 173.432 789.934C173.44 789.896 173.457 789.861 173.48 789.83C174.82 788.66 309.48 681.94 311.48 680.83C311.48 687.18 311.48 693.239 311.48 699.299C311.461 699.772 311.319 700.232 311.068 700.634C310.817 701.035 310.466 701.365 310.05 701.59V701.59ZM310.05 662.59C302.403 668.63 294.757 674.68 287.11 680.74L198.19 751.099C184.19 762.146 170.22 773.209 156.28 784.289C155.841 784.73 155.277 785.024 154.664 785.129C154.051 785.235 153.421 785.148 152.86 784.88C148.508 783.103 144.273 781.052 140.18 778.74C139.83 778.54 139.46 778.38 139.34 777.94C141.92 775.73 309.5 642.549 311.46 641.609C311.46 647.909 311.46 653.99 311.46 660.06C311.456 660.567 311.319 661.065 311.063 661.504C310.807 661.943 310.44 662.306 310 662.56L310.05 662.59ZM309.91 623.39C255.417 666.55 200.947 709.733 146.5 752.94L127.5 767.94C127.13 768.23 126.75 768.5 126.3 768.84C121.784 765.019 117.703 760.713 114.13 756L311.44 599.419V601.7C311.44 607.86 311.39 614.009 311.44 620.169C311.476 620.789 311.352 621.408 311.081 621.967C310.81 622.525 310.4 623.005 309.89 623.359L309.91 623.39ZM327.32 525.659C322.6 525.579 317.88 525.659 313.16 525.659C311.49 525.659 311.47 525.66 311.46 527.34C311.46 530.94 311.41 534.54 311.46 538.14C311.506 538.72 311.4 539.303 311.15 539.829C310.901 540.355 310.518 540.807 310.04 541.14C292.1 555.306 274.183 569.506 256.29 583.74L157.68 662L100.2 707.599C99.77 707.939 99.33 708.259 98.92 708.599C98.16 708.189 98.47 707.6 98.47 707.06C98.47 701.06 98.47 695.06 98.47 689.06C98.4338 688.439 98.5606 687.82 98.8378 687.264C99.115 686.708 99.5329 686.234 100.05 685.89C129.19 662.823 158.313 639.723 187.42 616.59L275.16 546.99L406.43 442.72L511.26 359.55C511.75 359.17 512.26 358.8 513.11 358.16C513.11 365.36 513.11 372.08 513.11 378.8C513.11 379.99 512.42 380.47 511.67 381.06L477.11 408.48L378.31 486.88C362.59 499.353 346.883 511.833 331.19 524.32C330.1 525.222 328.714 525.688 327.3 525.63L327.32 525.659ZM512.95 449.37C512.649 453.832 511.939 458.257 510.83 462.59C510.592 463.669 509.984 464.632 509.11 465.31C484.57 484.763 460.047 504.23 435.54 523.71C434.361 524.639 432.92 525.174 431.42 525.24C422.95 525.97 414.48 525.48 406.01 525.63C405.824 525.659 405.633 525.639 405.457 525.57C405.281 525.502 405.127 525.388 405.01 525.24L513 439.47C513.199 442.757 513.175 446.055 512.93 449.34L512.95 449.37ZM511.74 421.43C491.007 437.843 470.29 454.28 449.59 470.74C427.37 488.366 405.157 506.003 382.95 523.65C381.323 525.018 379.244 525.731 377.12 525.65C369.53 525.52 361.94 525.65 354.29 525.65C355.39 524.15 510.44 400.98 513.13 399.49C513.13 406.05 513.13 412.37 513.13 418.68C513.149 419.216 513.029 419.748 512.782 420.225C512.535 420.701 512.169 421.106 511.72 421.4L511.74 421.43ZM511.31 340.48C494.877 353.46 478.467 366.46 462.08 379.48L370.08 452.48L236.28 558.599L128.09 644.45L100.09 666.65C99.66 666.98 99.2 667.269 98.43 667.799C98.43 661.359 98.43 655.359 98.43 649.359C98.4061 648.815 98.5267 648.274 98.7796 647.791C99.0325 647.308 99.4087 646.9 99.87 646.609C111.203 637.636 122.537 628.636 133.87 619.609L226.11 546.43L359.86 440.34L488.92 337.93L511.47 320.06C511.88 319.73 512.32 319.44 513.11 318.87V321.3C513.11 326.42 513.04 331.54 513.11 336.66C513.165 337.395 513.026 338.133 512.707 338.798C512.388 339.463 511.899 340.033 511.29 340.45L511.31 340.48ZM511.4 262.69C495.587 275.17 479.797 287.67 464.03 300.19C432.03 325.523 400.03 350.89 368.03 376.29L256 465L157.35 543.169C138.37 558.209 119.39 573.246 100.41 588.28C99.8515 588.846 99.1658 589.271 98.41 589.52V585.099C98.41 580.699 98.41 576.299 98.41 571.909C98.3602 571.288 98.4744 570.665 98.7411 570.101C99.0078 569.538 99.4178 569.055 99.93 568.7C113.743 557.806 127.523 546.883 141.27 535.93L235.76 460.93L362.56 360.35L484.27 263.76C493.35 256.546 502.433 249.346 511.52 242.16C511.93 241.84 512.23 241.28 513.1 241.41V247.06C513.1 251.06 513.01 255.06 513.1 259.06C513.162 259.759 513.035 260.461 512.732 261.095C512.43 261.728 511.963 262.268 511.38 262.66L511.4 262.69ZM511.4 223.26C487.253 242.34 463.12 261.446 439 280.58L339.82 359.27L227.53 448.39L128.73 526.78L100.18 549.44C99.75 549.78 99.28 550.079 98.45 550.669C98.45 543.469 98.45 536.669 98.45 529.909C98.45 528.699 99.31 528.26 100.03 527.69C106.337 522.656 112.67 517.636 119.03 512.63L206.21 443.47L340.21 337.21L448.04 251.64L511.35 201.41C511.84 201.02 512.35 200.67 512.95 200.22C513.235 200.813 513.326 201.481 513.21 202.13C513.21 207.97 513.15 213.81 513.27 219.64C513.303 220.353 513.144 221.062 512.81 221.694C512.475 222.325 511.978 222.855 511.37 223.23L511.4 223.26Z" fill="#1A1A1A"/>
</g>
<defs>
<clipPath id="clip0">
<rect width="609.6" height="905.04" fill="white"/>
</clipPath>
</defs>
</svg>
