<svg width="4096" height="2301" viewBox="0 0 4096 2301" fill="none" xmlns="http://www.w3.org/2000/svg">
<rect width="4096" height="2301" fill="white"/>
<g opacity="0.15" clip-path="url(#clip0)">
<path d="M2477.34 764.415C2472.88 732.268 2463 701.109 2448.12 672.264C2418.27 613.748 2369.72 566.881 2310.19 539.102C2292.09 530.649 2273.18 524.033 2253.76 519.352C2232.3 514.19 2210.26 511.819 2188.19 512.298V512.608C2187.3 512.608 2186.4 512.721 2185.49 512.721C2135.19 512.721 2084.87 512.721 2034.54 512.721C2033.38 512.721 2032.03 513.286 2031.07 512.072H2030.39C2030.27 512.369 2030.18 512.693 2029.74 512.707C2028.84 512.707 2027.95 512.707 2027.05 512.707H1912.85C1911.85 512.707 1910.83 512.707 1909.83 512.594V512.411L1892.69 512.637C1878.92 513.015 1865.22 514.706 1851.78 517.687C1813.45 525.618 1777.12 541.208 1744.97 563.523C1714.83 584.2 1688.82 610.33 1668.28 640.564C1647.09 671.452 1632.12 706.174 1624.22 742.788C1621.3 756.36 1618.82 770.002 1618.68 783.954C1618.9 786.705 1618.27 789.428 1618.35 792.179C1618.17 793.59 1618.73 795.085 1618 796.411V1506.8C1618.75 1508.79 1618.16 1510.85 1618.35 1512.87C1618.64 1515.04 1618.75 1517.23 1618.68 1519.41C1618.9 1528.1 1619.85 1536.74 1621.5 1545.27C1626.88 1577.61 1637.71 1608.8 1653.52 1637.52C1690.86 1705.74 1753.65 1756.45 1828.2 1778.6C1845.12 1783.74 1862.51 1787.15 1880.12 1788.78H2217.9C2228.88 1787.75 2239.78 1785.98 2250.53 1783.49C2299.19 1772.56 2344.26 1749.38 2381.45 1716.14C2396.97 1702.36 2411.01 1686.99 2423.33 1670.28C2443.21 1643.36 2458.26 1613.19 2467.81 1581.12C2472.68 1564.53 2476.84 1547.8 2478 1530.54V771.003C2477.84 768.803 2477.65 766.602 2477.34 764.415ZM2332.66 745.483C2335.73 752.279 2338.09 759.369 2339.72 766.644C2339.91 767.287 2339.87 767.975 2339.62 768.594C2339.36 769.213 2338.9 769.725 2338.31 770.044C2332.37 774.714 2326.47 779.44 2320.54 784.152L2180.63 895.066L2031.97 1013.03L1902.4 1115.85C1854.97 1153.47 1807.53 1191.09 1760.09 1228.71C1759.28 1229.57 1758.28 1230.23 1757.17 1230.66C1756.84 1229.86 1756.74 1228.98 1756.9 1228.13C1756.9 1220.68 1756.99 1213.23 1756.9 1205.79C1756.83 1204.8 1757.01 1203.81 1757.44 1202.91C1757.87 1202.02 1758.53 1201.25 1759.34 1200.69C1779.54 1184.7 1799.68 1168.72 1819.78 1152.73L1959.14 1042.05C2015.74 997.106 2072.35 952.155 2128.96 907.198L2275.12 791.093L2331.01 746.696C2331.45 746.357 2331.85 746.033 2332.66 745.483ZM2341.93 931.52C2342 932.565 2341.8 933.609 2341.33 934.548C2340.87 935.487 2340.17 936.287 2339.29 936.867C2321.42 950.974 2303.55 965.11 2285.69 979.274L2146.32 1089.85L1993.95 1210.75L1857.83 1318.79L1759.08 1397.21C1758.51 1397.79 1757.76 1398.16 1756.96 1398.24C1756.96 1389.78 1756.96 1381.31 1756.96 1373.03C1756.96 1371.04 1758.16 1370.21 1759.36 1369.31L1796.48 1339.89L1928.37 1235.27C1986.79 1188.98 2045.21 1142.69 2103.61 1096.4C2159.56 1052.07 2215.52 1007.73 2271.49 963.389L2339.38 909.625C2340.04 909.103 2340.56 908.214 2341.93 908.299V912.531C2341.88 918.894 2341.72 925.214 2341.93 931.52V931.52ZM2310.32 712.852C2313.97 716.539 2317.35 720.485 2320.43 724.66C2322.07 726.861 2322.07 726.889 2319.94 728.582L2283.12 757.799L2139.8 871.577L1990.13 990.419L1860.34 1093.52L1760.18 1173.03C1759.23 1173.78 1758.24 1174.44 1756.83 1175.5V1168.68C1756.83 1163.27 1756.95 1157.83 1756.83 1152.43C1756.74 1151.39 1756.93 1150.34 1757.38 1149.39C1757.83 1148.45 1758.52 1147.63 1759.39 1147.04C1774.23 1135.41 1788.98 1123.71 1803.66 1111.96L1933.69 1008.63L2100.27 876.162L2244.38 761.65L2306.1 712.598C2308.41 710.736 2307.86 710.411 2310.32 712.824V712.852ZM2140.22 675.467C2141.44 674.296 2143.05 673.618 2144.74 673.562C2155.23 673.647 2165.73 673.562 2176.22 673.562C2176.65 673.562 2177.07 673.661 2178.24 673.802C2037.69 785.356 1897.3 896.759 1757.07 1008.01C1757.07 998.573 1757.07 989.798 1757.07 981.023C1757.07 979.331 1758.16 978.668 1759.2 977.849C1767.4 971.322 1775.61 964.795 1783.83 958.268L1929.78 842.43L2108.94 700.296C2119.39 692.029 2129.82 683.753 2140.22 675.467ZM2006.65 673.576C2016.79 673.576 2026.95 673.576 2037.11 673.576C2037.66 673.576 2038.22 673.576 2038.83 673.661C2037.43 675.692 1760.32 895.771 1757.41 897.182C1756.83 896.632 1757.09 895.926 1757.09 895.292C1757.09 887.617 1757.09 879.957 1757.09 872.282C1757.03 871.458 1757.19 870.634 1757.55 869.891C1757.91 869.149 1758.46 868.514 1759.15 868.05C1809.14 828.417 1859.13 788.751 1909.1 749.052C1940.13 724.458 1971.13 699.859 2002.08 675.255C2003.34 674.147 2004.97 673.548 2006.65 673.576ZM1758.96 768.436C1759.97 763.244 1761.36 758.133 1763.11 753.143C1763.62 751.653 1764.56 750.351 1765.82 749.405C1796.04 725.478 1826.24 701.523 1856.42 677.54C1857.53 676.603 1858.86 675.954 1860.28 675.65C1872.16 673.294 1884.18 673.604 1896.5 674.239L1757.47 784.603C1757.32 779.174 1757.82 773.746 1758.96 768.436V768.436ZM1759.25 810.082C1794.17 782.431 1829.07 754.761 1863.95 727.072C1885.58 709.908 1907.22 692.73 1928.85 675.537C1930.38 674.221 1932.34 673.517 1934.36 673.562C1945.08 673.661 1955.81 673.562 1966.51 673.562H1969.34C1967.52 675.989 1759.82 840.78 1757.07 841.979V837.239C1757.07 829.691 1757.16 822.129 1757.07 814.568C1757.03 813.697 1757.2 812.829 1757.58 812.044C1757.96 811.26 1758.53 810.584 1759.25 810.082V810.082ZM1757.1 949.747C1757.1 942.411 1757.1 935.075 1757.1 927.739C1757.04 926.858 1757.22 925.978 1757.6 925.184C1757.99 924.39 1758.57 923.71 1759.3 923.211C1792.22 897.168 1825.09 871.106 1857.9 845.026L2017.15 718.65C2035.26 704.279 2053.36 689.903 2071.45 675.523C2072.98 674.213 2074.95 673.514 2076.96 673.562C2086.2 673.661 2095.46 673.562 2104.71 673.562C2105.87 673.427 2107.04 673.577 2108.13 673.999L1757.67 952.032C1756.69 951.327 1757.1 950.452 1757.1 949.747V949.747ZM1759.23 1033.19C1779.52 1017.2 1799.74 1001.17 1819.89 985.086L1956.63 876.599L2135.58 734.705C2160.15 715.217 2184.68 695.711 2209.19 676.186C2211.33 674.39 2214.07 673.468 2216.85 673.604C2225.86 673.772 2234.83 674.763 2243.66 676.567C2244.63 676.735 2245.56 677.09 2246.4 677.611L1756.86 1065.99V1055.55C1756.86 1049.8 1756.95 1044.04 1756.86 1038.29C1756.78 1037.3 1756.95 1036.32 1757.37 1035.42C1757.78 1034.53 1758.43 1033.76 1759.23 1033.19V1033.19ZM1759.23 1091.03C1770.26 1082.26 1781.31 1073.49 1792.36 1064.74L1915.67 967.029C1973.19 921.405 2030.71 875.79 2088.22 830.185C2136.83 791.624 2185.42 753.063 2233.99 714.502C2245.56 705.318 2257.17 696.163 2268.67 686.908C2269.25 686.335 2270.01 685.977 2270.82 685.892C2271.63 685.807 2272.44 686.002 2273.13 686.442C2279.57 689.517 2285.76 693.088 2291.65 697.122L1756.97 1122.14C1756.97 1112.45 1757.06 1103.65 1756.97 1094.86C1756.8 1092.81 1758.05 1092.05 1759.23 1091.09V1091.03ZM1767.81 1560.24C1764.33 1553.26 1761.63 1545.91 1759.78 1538.33C1759.43 1536.92 1760.42 1536.51 1761.19 1535.92C1766.03 1532.04 1770.88 1528.18 1775.75 1524.34L1948.82 1387.01L2054.01 1303.48C2054.88 1302.79 2055.79 1302.14 2057.3 1301.03V1315.2C2057.3 1319.44 2057.2 1323.78 2057.3 1328.07C2057.36 1328.9 2057.2 1329.74 2056.83 1330.48C2056.46 1331.23 2055.89 1331.86 2055.18 1332.3C2037.83 1345.99 2020.51 1359.72 2003.22 1373.5L1873.43 1476.48L1770.63 1558.1C1769.76 1558.83 1768.84 1559.48 1767.81 1560.24ZM2055.96 1531.45C2054.03 1542.55 2050.37 1553.29 2045.11 1563.26C2044.29 1564.86 2043.13 1566.27 2041.72 1567.39C2019.44 1585.01 1997.18 1602.66 1974.92 1620.34C1973.52 1621.47 1971.92 1622.31 1970.2 1622.82C1960.82 1625.63 1951.17 1627.44 1941.42 1628.22C1937.62 1628.58 1933.8 1628.73 1929.99 1628.65L2055.89 1528.4C2056.2 1529.39 2056.22 1530.44 2055.96 1531.45V1531.45ZM2055.41 1501.82C2049.42 1506.6 2043.42 1511.38 2037.42 1516.17C1991.33 1552.85 1945.21 1589.58 1899.04 1626.38C1897.19 1628 1894.79 1628.85 1892.34 1628.76C1884.9 1628.56 1877.45 1628.93 1870.03 1628.03L1862.67 1627.08C1862.98 1626.53 1862.67 1627.08 1862.67 1626.62C1862.66 1626.56 1862.66 1626.51 1862.67 1626.45C1862.68 1626.4 1862.71 1626.35 1862.74 1626.31C1864.63 1624.66 2054.6 1474.1 2057.42 1472.53C2057.42 1481.49 2057.42 1490.04 2057.42 1498.59C2057.4 1499.26 2057.2 1499.91 2056.84 1500.47C2056.49 1501.04 2055.99 1501.5 2055.41 1501.82V1501.82ZM2055.41 1446.8C2044.62 1455.32 2033.83 1463.86 2023.04 1472.41L1897.6 1571.67C1877.85 1587.25 1858.14 1602.86 1838.47 1618.49C1837.85 1619.11 1837.06 1619.53 1836.19 1619.67C1835.33 1619.82 1834.44 1619.7 1833.65 1619.32C1827.51 1616.82 1821.53 1613.92 1815.76 1610.66C1815.27 1610.38 1814.74 1610.15 1814.58 1609.53C1818.22 1606.41 2054.63 1418.53 2057.4 1417.2C2057.4 1426.09 2057.4 1434.67 2057.4 1443.23C2057.39 1443.95 2057.2 1444.65 2056.84 1445.27C2056.47 1445.89 2055.96 1446.4 2055.34 1446.76L2055.41 1446.8ZM2055.21 1391.5C1978.33 1452.39 1901.49 1513.31 1824.68 1574.26L1797.87 1595.42C1797.35 1595.83 1796.81 1596.21 1796.18 1596.69C1789.81 1591.3 1784.05 1585.23 1779.01 1578.58L2057.37 1357.68V1360.9C2057.37 1369.59 2057.3 1378.27 2057.37 1386.96C2057.42 1387.83 2057.24 1388.7 2056.86 1389.49C2056.48 1390.28 2055.9 1390.96 2055.18 1391.46L2055.21 1391.5ZM2079.77 1253.62C2073.11 1253.51 2066.45 1253.62 2059.79 1253.62C2057.44 1253.62 2057.41 1253.62 2057.4 1256C2057.4 1261.07 2057.33 1266.15 2057.4 1271.23C2057.46 1272.05 2057.31 1272.87 2056.96 1273.61C2056.61 1274.36 2056.07 1274.99 2055.39 1275.46C2030.08 1295.45 2004.81 1315.48 1979.56 1335.56L1840.45 1445.97L1759.36 1510.3C1758.75 1510.78 1758.13 1511.23 1757.55 1511.71C1756.48 1511.13 1756.92 1510.3 1756.92 1509.54C1756.92 1501.07 1756.92 1492.61 1756.92 1484.14C1756.87 1483.27 1757.05 1482.39 1757.44 1481.61C1757.83 1480.83 1758.42 1480.16 1759.15 1479.67C1800.26 1447.13 1841.34 1414.54 1882.4 1381.91L2006.19 1283.72L2191.38 1136.62L2339.27 1019.28C2339.96 1018.75 2340.68 1018.23 2341.88 1017.32C2341.88 1027.48 2341.88 1036.96 2341.88 1046.44C2341.88 1048.12 2340.9 1048.8 2339.84 1049.63L2291.09 1088.31L2151.71 1198.92C2129.53 1216.51 2107.37 1234.12 2085.23 1251.73C2083.69 1253.01 2081.74 1253.67 2079.74 1253.58L2079.77 1253.62ZM2341.65 1146C2341.23 1152.29 2340.22 1158.54 2338.66 1164.65C2338.32 1166.17 2337.47 1167.53 2336.23 1168.49C2301.61 1195.93 2267.02 1223.39 2232.44 1250.87C2230.78 1252.18 2228.75 1252.94 2226.63 1253.03C2214.68 1254.06 2202.73 1253.37 2190.78 1253.58C2190.52 1253.62 2190.25 1253.6 2190 1253.5C2189.76 1253.4 2189.54 1253.24 2189.37 1253.03L2341.72 1132.03C2342 1136.67 2341.97 1141.32 2341.62 1145.96L2341.65 1146ZM2339.94 1106.58C2310.69 1129.74 2281.47 1152.92 2252.26 1176.15C2220.92 1201.01 2189.58 1225.89 2158.25 1250.79C2155.96 1252.72 2153.02 1253.73 2150.03 1253.61C2139.32 1253.43 2128.61 1253.61 2117.82 1253.61C2119.37 1251.49 2338.11 1077.73 2341.9 1075.63C2341.9 1084.88 2341.9 1093.8 2341.9 1102.7C2341.93 1103.46 2341.76 1104.21 2341.41 1104.88C2341.06 1105.55 2340.55 1106.12 2339.91 1106.54L2339.94 1106.58ZM2339.34 992.38C2316.15 1010.69 2293 1029.03 2269.88 1047.4L2140.09 1150.39L1951.33 1300.1L1798.7 1421.21L1759.2 1452.53C1758.6 1452.99 1757.95 1453.4 1756.86 1454.15C1756.86 1445.07 1756.86 1436.6 1756.86 1428.14C1756.83 1427.37 1757 1426.6 1757.35 1425.92C1757.71 1425.24 1758.24 1424.67 1758.89 1424.26C1774.88 1411.6 1790.87 1398.9 1806.86 1386.17L1936.99 1282.93L2125.68 1133.26L2307.75 988.783L2339.56 963.572C2340.14 963.107 2340.76 962.698 2341.88 961.894V965.322C2341.88 972.545 2341.78 979.768 2341.88 986.991C2341.95 988.029 2341.76 989.069 2341.31 990.008C2340.86 990.946 2340.17 991.75 2339.31 992.338L2339.34 992.38ZM2339.46 882.637C2317.15 900.243 2294.88 917.878 2272.64 935.541C2227.49 971.28 2182.35 1007.07 2137.2 1042.9L1979.15 1168.05L1839.98 1278.33C1813.21 1299.55 1786.43 1320.76 1759.65 1341.97C1758.87 1342.77 1757.9 1343.37 1756.83 1343.72V1337.48C1756.83 1331.27 1756.83 1325.07 1756.83 1318.87C1756.76 1318 1756.92 1317.12 1757.3 1316.32C1757.68 1315.53 1758.25 1314.85 1758.98 1314.34C1778.46 1298.98 1797.9 1283.57 1817.3 1268.11L1950.6 1162.31L2129.49 1020.41L2301.19 884.147C2314 873.97 2326.81 863.813 2339.63 853.674C2340.21 853.223 2340.63 852.433 2341.86 852.616V860.587C2341.86 866.23 2341.73 871.873 2341.86 877.516C2341.95 878.502 2341.77 879.494 2341.34 880.387C2340.92 881.28 2340.26 882.043 2339.44 882.595L2339.46 882.637ZM2339.46 827.011C2305.4 853.928 2271.35 880.883 2237.32 907.876L2097.4 1018.89L1938.99 1144.62L1799.61 1255.2L1759.33 1287.17C1758.72 1287.65 1758.06 1288.08 1756.89 1288.91C1756.89 1278.75 1756.89 1269.16 1756.89 1259.62C1756.89 1257.91 1758.1 1257.29 1759.12 1256.49C1768.02 1249.39 1776.95 1242.31 1785.92 1235.24L1908.91 1137.67L2097.96 987.767L2250.08 867.048L2339.39 796.186C2340.08 795.635 2340.8 795.142 2341.65 794.507C2342.05 795.344 2342.18 796.287 2342.02 797.201C2342.02 805.44 2341.93 813.679 2342.1 821.904C2342.15 822.91 2341.92 823.911 2341.45 824.802C2340.98 825.692 2340.28 826.44 2339.42 826.968L2339.46 827.011Z" fill="url(#paint0_linear)"/>
</g>
<defs>
<linearGradient id="paint0_linear" x1="1751.43" y1="512.072" x2="2596.64" y2="831.908" gradientUnits="userSpaceOnUse">
<stop stop-color="#C4F1E4"/>
<stop offset="1" stop-color="#72E9E9"/>
</linearGradient>
<clipPath id="clip0">
<rect width="860" height="1276.8" fill="white" transform="translate(1618 512)"/>
</clipPath>
</defs>
</svg>
