<svg height="15" viewBox="0 0 13 15" width="13" xmlns="http://www.w3.org/2000/svg"><g fill="#b5ade6" fill-rule="evenodd"><path d="m11.973685 0h-7.86841507c-.35404447.00126-.68249948.19294033-.86894671.50714136l-2.73684686 2.85714245c-.31037818.19382497-.50012946.54386063-.49947467.92143201v9.64285578c0 .5917142.45949628 1.0714284 1.02631638 1.0714284h10.94736693c.5667996 0 1.026315-.4797142 1.026315-1.0714284v-12.85714461c0-.59173206-.4595154-1.07142699-1.026315-1.07142699zm-8.89473692 2.18571254v1.02857129h-.98526241zm8.89473692 11.74285906h-10.94736693v-9.6071415h.0205263l.0205263-.02142857h3.03789926v-3.17143169l.0205263-.02142857v-.02142857h7.83420457z"/><path d="m9.97826155 8.27586207h-6.9565231c-.28814919 0-.52173845.23158621-.52173845.51724138s.23358926.51724138.52173845.51724138h6.9565231c.28813875 0 .52173845-.23158621.52173845-.51724138s-.2335997-.51724138-.52173845-.51724138z"/><path d="m8.97500079 10.862069h-5.95000158c-.28995006 0-.52499921.2315862-.52499921.5172413 0 .2856552.23504915.5172414.52499921.5172414h5.95000158c.28993956 0 .52499921-.2315862.52499921-.5172414 0-.2856551-.23505965-.5172413-.52499921-.5172413z"/><path d="m7.5 6.72413793h2c.5522667 0 1-.46317203 1-1.0344819v-2.06896379c0-.57133056-.4477333-1.03448534-1-1.03448534h-2c-.5523 0-1 .46315478-1 1.03448534v2.06896379c0 .57130987.4477 1.0344819 1 1.0344819zm0-3.10344569h2v2.06896379h-2z"/></g></svg>